<?xml version="1.0" encoding="UTF-8"?>
<svg width="20" height="23.549" enable-background="new 0 0 1000 1000" version="1.1" viewBox="0 0 20.000002 23.549204" xml:space="preserve" xmlns="http://www.w3.org/2000/svg" xmlns:cc="http://creativecommons.org/ns#" xmlns:dc="http://purl.org/dc/elements/1.1/" xmlns:rdf="http://www.w3.org/1999/02/22-rdf-syntax-ns#">
<metadata> Svg Vector Icons : http://www.onlinewebfonts.com/icon <rdf:RDF><cc:Work rdf:about=""><dc:format>image/svg+xml</dc:format><dc:type rdf:resource="http://purl.org/dc/dcmitype/StillImage"/><dc:title/></cc:Work></rdf:RDF></metadata>
<g transform="matrix(.02403 0 0 .02403 -2.0161 -.2403)"><path d="m83.9 10v881.6h234.7v-69.5h-165.2v-742.6h556.2v417.1h69.5v-486.6z"/><path d="m222.9 149.6h417.1v69.5h-417.1z"/><path d="m222.9 288.6h417.1v69.5h-417.1z"/><path d="m222.9 427.7h417.1v69.5h-417.1z"/><path d="m510.2 897c-20.1 0-38.1-3.3-53.8-10s-29-15.8-39.9-27.5-19.2-25.6-24.8-41.9c-5.7-16.2-8.5-34.1-8.5-53.5 0-19.2 2.9-36.8 8.5-53 5.7-16.2 13.9-30.1 24.8-41.9 10.8-11.7 24.2-20.9 39.9-27.5s33.6-9.9 53.8-9.9c20.1 0 38 3.3 53.8 9.9 15.7 6.6 29 15.8 39.9 27.5 10.8 11.7 19.2 25.7 24.8 41.9 5.7 16.2 8.5 33.9 8.5 53 0 19.5-2.8 37.3-8.5 53.5s-13.9 30.2-24.8 41.9-24.2 20.9-39.9 27.5c-15.7 6.7-33.6 10-53.8 10zm0-43.8c12.3 0 23-2.6 32.1-7.8s16.6-12 22.4-20.4 10.1-17.9 12.9-28.5c2.7-10.5 4.1-21.3 4.1-32.4 0-10.7-1.4-21.4-4.1-32.1-2.8-10.7-7.1-20.2-12.9-28.5s-13.3-15-22.4-20.2-19.8-7.8-32.1-7.8-23 2.6-32.1 7.8-16.5 11.9-22.4 20.2c-5.8 8.3-10.2 17.8-12.9 28.5-2.8 10.7-4.1 21.4-4.1 32.1 0 11 1.4 21.8 4.1 32.4s7.1 20.1 12.9 28.5 13.3 15.2 22.4 20.4 19.8 7.8 32.1 7.8z"/><path d="m916.1 877.1c0 38-10.6 66.3-31.9 84.9-21.2 18.6-51.8 28-91.7 28-12.7 0-25.4-1.3-38.2-3.9s-24.5-7-35-13.1c-10.6-6.2-19.4-14.3-26.5-24.3-7.2-10-11.4-22.4-12.7-37h55.5c1.6 7.8 4.4 14.1 8.3 19s8.5 8.7 13.9 11.4c5.3 2.7 11.3 4.6 17.8 5.3 6.5 0.8 13.3 1.2 20.4 1.2 22.4 0 38.8-5.5 49.2-16.5s15.5-26.9 15.5-47.7v-38.4h-0.9c-7.8 13.9-18.4 24.9-31.9 32.6-13.5 7.8-28 11.7-43.6 11.7-20.1 0-37.2-3.5-51.3-10.5s-25.8-16.6-35.1-28.7c-9.2-12.2-16-26.2-20.2-42.1s-6.3-32.9-6.3-51.1c0-16.9 2.6-32.9 7.8-48.2 5.2-15.2 12.7-28.6 22.4-40.1s21.7-20.7 35.8-27.5 30.1-10.2 47.9-10.2c15.9 0 30.5 3.3 43.8 9.9s23.5 17.1 30.7 31.4h0.9v-34.6h55.5zm-123.1-30.7c12.3 0 22.8-2.5 31.4-7.5 8.6-5.1 15.6-11.7 21-20s9.2-17.7 11.7-28.2c2.4-10.5 3.6-21.1 3.6-31.9 0-10.7-1.3-21.1-3.9-31.1s-6.6-19-11.9-26.8c-5.4-7.8-12.3-13.9-21-18.5-8.6-4.6-18.9-6.8-30.9-6.8-12.3 0-22.7 2.6-31.1 7.8s-15.3 11.9-20.5 20.2-8.9 17.7-11.2 28.2-3.4 21-3.4 31.4 1.3 20.5 3.9 30.4 6.6 18.7 11.9 26.6c5.4 7.8 12.2 14.1 20.4 19 8.3 4.8 18.3 7.2 30 7.2z"/></g>
</svg>
