<?xml version="1.0" encoding="UTF-8"?>
<svg width="19.716" height="20" version="1.1" viewBox="0 0 19.715624 20" xml:space="preserve" xmlns="http://www.w3.org/2000/svg" xmlns:cc="http://creativecommons.org/ns#" xmlns:dc="http://purl.org/dc/elements/1.1/" xmlns:rdf="http://www.w3.org/1999/02/22-rdf-syntax-ns#"><metadata><rdf:RDF><cc:Work rdf:about=""><dc:format>image/svg+xml</dc:format><dc:type rdf:resource="http://purl.org/dc/dcmitype/StillImage"/><dc:title/></cc:Work></rdf:RDF></metadata>
<g transform="matrix(.06734 0 0 .06734 -.14215 0)">
	<ellipse cx="99.187" cy="55.813" rx="22.953" ry="11.686"/>
	<path d="m2.111 241.06c0 31.891 41.289 55.939 96.042 55.939 41.54 0 75.38-13.592 89.544-33.871 6.583-4.603 23.148-14.49 43.83-14.49 38.38 0 58.554-19.732 59.394-20.573 2.541-2.54 3.967-5.985 3.967-9.578v-199.27c0-5.478-3.3-10.417-8.362-12.514-5.061-2.095-10.886-0.939-14.761 2.936-0.126 0.126-13.389 12.638-40.239 12.638-19.518 0-34.316 5.103-44.269 10.229-14.659-19.528-47.714-32.511-88.07-32.511-24.288 0-47.396 4.912-65.065 13.834-20.642 10.421-32.01 25.33-32.01 41.98v185.25zm97.076-213.97c42.21 0 69.147 17.012 69.147 28.724s-26.937 28.724-69.147 28.724c-42.722 0-69.986-17.012-69.986-28.724s27.264-28.724 69.986-28.724zm-1.034 242.82c-42.092 0-68.952-17.087-68.952-28.849v-145.94c1.578 0.921 3.215 1.816 4.921 2.677 17.67 8.921 40.777 13.834 65.066 13.834 27.377 0 51.394-5.975 68.588-15.916v145.6c-1e-3 11.661-27.123 28.598-69.623 28.598zm96.712-211.06c5.765-3.737 18.212-9.564 36.662-9.564 14.831 0 26.894-2.865 36.272-6.529v169.13c-6.251 3.737-17.798 9.66-36.272 9.66-15.046 0-27.28 3.036-36.662 6.774v-169.53z"/>
</g>
</svg>
