<?xml version="1.0" encoding="UTF-8"?>
<svg width="25.56" height="20" version="1.1" viewBox="0 0 25.559653 20.000001" xml:space="preserve" xmlns="http://www.w3.org/2000/svg" xmlns:cc="http://creativecommons.org/ns#" xmlns:dc="http://purl.org/dc/elements/1.1/" xmlns:rdf="http://www.w3.org/1999/02/22-rdf-syntax-ns#"><metadata><rdf:RDF><cc:Work rdf:about=""><dc:format>image/svg+xml</dc:format><dc:type rdf:resource="http://purl.org/dc/dcmitype/StillImage"/><dc:title/></cc:Work></rdf:RDF></metadata>
<g transform="matrix(.049274 0 0 .049274 0 -2.7798)">
		<path d="m454.22 56.416c-1.849 0-3.675 0.123-5.481 0.278-0.45-0.124-0.892-0.278-1.375-0.278h-264.6c-35.57 0-64.505 28.935-64.505 64.505v271.51h-112.88c-2.973 0-5.375 2.399-5.375 5.376 0 35.562 28.935 64.505 64.505 64.505 1.323 0 2.493-0.537 3.431-1.324 0.935 0.787 2.105 1.324 3.428 1.324h264.6c35.57 0 64.505-28.942 64.505-64.505 0-0.483-0.158-0.925-0.272-1.366 0.114-0.451 0.272-0.882 0.272-1.37v-268.77h112.88c2.971 0 5.376-2.404 5.376-5.375-1e-3 -35.575-28.936-64.51-64.506-64.51zm-118.26 395.14c-29.639 0-53.754-24.105-53.754-53.754 0-2.977-2.404-5.376-5.375-5.376h-147.82v-271.51c0-29.642 24.114-53.754 53.754-53.754h235.88c-17.407 11.562-28.924 31.328-28.924 53.754v274.14c0 0.483 0.156 0.925 0.272 1.366-0.116 0.451-0.272 0.883-0.272 1.363 0 29.649-24.115 53.767-53.754 53.767z"/>
		<path d="m342.68 345.34h-150.51c-2.974 0-5.375 2.402-5.375 5.376 0 2.971 2.402 5.373 5.375 5.373h150.51c2.971 0 5.375-2.402 5.375-5.373 0-2.974-2.404-5.376-5.375-5.376z"/>
		<path d="m342.68 291.59h-150.51c-2.974 0-5.375 2.403-5.375 5.376 0 2.971 2.402 5.373 5.375 5.373h150.51c2.971 0 5.375-2.402 5.375-5.373 0-2.973-2.404-5.376-5.375-5.376z"/>
		<path d="m342.68 237.84h-150.51c-2.974 0-5.375 2.402-5.375 5.375 0 2.971 2.402 5.375 5.375 5.375h150.51c2.971 0 5.375-2.404 5.375-5.375 0-2.973-2.404-5.375-5.375-5.375z"/>
		<path d="m342.68 184.08h-150.51c-2.974 0-5.375 2.401-5.375 5.375 0 2.972 2.402 5.376 5.375 5.376h150.51c2.971 0 5.375-2.404 5.375-5.376 0-2.975-2.404-5.375-5.375-5.375z"/>
		<path d="m342.68 130.33h-150.51c-2.974 0-5.375 2.402-5.375 5.375 0 2.971 2.402 5.375 5.375 5.375h150.51c2.971 0 5.375-2.405 5.375-5.375 0-2.973-2.404-5.375-5.375-5.375z"/>
</g>
</svg>
